<?xml version="1.0" standalone="no"?>
<svg xmlns:xlink="http://www.w3.org/1999/xlink" id="wave" style="transform:rotate(0deg); transition: 0.3s" viewBox="0 0 1440 360" version="1.1" xmlns="http://www.w3.org/2000/svg"><defs><linearGradient id="sw-gradient-0" x1="0" x2="0" y1="1" y2="0"><stop stop-color="rgba(95, 133, 241, 0.79)" offset="0%"/><stop stop-color="rgba(95, 133, 241, 0.78)" offset="100%"/></linearGradient></defs><path style="transform:translate(0, 0px); opacity:1" fill="url(#sw-gradient-0)" d="M0,324L21.8,300C43.6,276,87,228,131,192C174.5,156,218,132,262,126C305.5,120,349,132,393,162C436.4,192,480,240,524,258C567.3,276,611,264,655,246C698.2,228,742,204,785,168C829.1,132,873,84,916,66C960,48,1004,60,1047,72C1090.9,84,1135,96,1178,126C1221.8,156,1265,204,1309,198C1352.7,192,1396,132,1440,120C1483.6,108,1527,144,1571,150C1614.5,156,1658,132,1702,132C1745.5,132,1789,156,1833,156C1876.4,156,1920,132,1964,138C2007.3,144,2051,180,2095,210C2138.2,240,2182,264,2225,270C2269.1,276,2313,264,2356,222C2400,180,2444,108,2487,90C2530.9,72,2575,108,2618,132C2661.8,156,2705,168,2749,168C2792.7,168,2836,156,2880,132C2923.6,108,2967,72,3011,90C3054.5,108,3098,180,3120,216L3141.8,252L3141.8,360L3120,360C3098.2,360,3055,360,3011,360C2967.3,360,2924,360,2880,360C2836.4,360,2793,360,2749,360C2705.5,360,2662,360,2618,360C2574.5,360,2531,360,2487,360C2443.6,360,2400,360,2356,360C2312.7,360,2269,360,2225,360C2181.8,360,2138,360,2095,360C2050.9,360,2007,360,1964,360C1920,360,1876,360,1833,360C1789.1,360,1745,360,1702,360C1658.2,360,1615,360,1571,360C1527.3,360,1484,360,1440,360C1396.4,360,1353,360,1309,360C1265.5,360,1222,360,1178,360C1134.5,360,1091,360,1047,360C1003.6,360,960,360,916,360C872.7,360,829,360,785,360C741.8,360,698,360,655,360C610.9,360,567,360,524,360C480,360,436,360,393,360C349.1,360,305,360,262,360C218.2,360,175,360,131,360C87.3,360,44,360,22,360L0,360Z"/></svg>