<?xml version="1.0" standalone="no"?>
<svg xmlns:xlink="http://www.w3.org/1999/xlink" id="wave" style="transform:rotate(0deg); transition: 0.3s" viewBox="0 0 1440 280" version="1.1" xmlns="http://www.w3.org/2000/svg"><defs><linearGradient id="sw-gradient-0" x1="0" x2="0" y1="1" y2="0"><stop stop-color="rgba(95, 133, 241, 1)" offset="0%"/><stop stop-color="rgba(95, 133, 241, 1)" offset="100%"/></linearGradient></defs><path style="transform:translate(0, 0px); opacity:1" fill="url(#sw-gradient-0)" d="M0,84L40,74.7C80,65,160,47,240,60.7C320,75,400,121,480,154C560,187,640,205,720,182C800,159,880,93,960,70C1040,47,1120,65,1200,102.7C1280,140,1360,196,1440,205.3C1520,215,1600,177,1680,177.3C1760,177,1840,215,1920,233.3C2000,252,2080,252,2160,224C2240,196,2320,140,2400,102.7C2480,65,2560,47,2640,56C2720,65,2800,103,2880,121.3C2960,140,3040,140,3120,140C3200,140,3280,140,3360,116.7C3440,93,3520,47,3600,60.7C3680,75,3760,149,3840,191.3C3920,233,4000,243,4080,214.7C4160,187,4240,121,4320,79.3C4400,37,4480,19,4560,51.3C4640,84,4720,168,4800,191.3C4880,215,4960,177,5040,149.3C5120,121,5200,103,5280,93.3C5360,84,5440,84,5520,102.7C5600,121,5680,159,5720,177.3L5760,196L5760,280L5720,280C5680,280,5600,280,5520,280C5440,280,5360,280,5280,280C5200,280,5120,280,5040,280C4960,280,4880,280,4800,280C4720,280,4640,280,4560,280C4480,280,4400,280,4320,280C4240,280,4160,280,4080,280C4000,280,3920,280,3840,280C3760,280,3680,280,3600,280C3520,280,3440,280,3360,280C3280,280,3200,280,3120,280C3040,280,2960,280,2880,280C2800,280,2720,280,2640,280C2560,280,2480,280,2400,280C2320,280,2240,280,2160,280C2080,280,2000,280,1920,280C1840,280,1760,280,1680,280C1600,280,1520,280,1440,280C1360,280,1280,280,1200,280C1120,280,1040,280,960,280C880,280,800,280,720,280C640,280,560,280,480,280C400,280,320,280,240,280C160,280,80,280,40,280L0,280Z"/></svg>